<?xml version="1.0" encoding="utf-8"?>
<!-- Generator: Adobe Illustrator 25.1.0, SVG Export Plug-In . SVG Version: 6.00 Build 0)  -->
<svg version="1.1" id="Layer_1" xmlns="http://www.w3.org/2000/svg" xmlns:xlink="http://www.w3.org/1999/xlink" x="0px" y="0px"
	 viewBox="0 0 143.98 58" style="enable-background:new 0 0 143.98 58;" xml:space="preserve">
<style type="text/css">
	.st0{fill:#9B7D32;}
	.st1{fill:#4E2C3D;}
	.st2{fill:none;}
	.st3{fill:url(#SVGID_1_);}
	.st4{fill:url(#SVGID_2_);}
	.st5{fill:url(#SVGID_3_);}
	.st6{fill:url(#SVGID_4_);}
	.st7{fill:url(#SVGID_5_);}
	.st8{fill:url(#SVGID_6_);}
	.st9{fill:url(#SVGID_7_);}
</style>
<path class="st0" d="M38.54,6.7c-0.35-0.18-1.06,0.3-1.35,0.89c-0.1,0.2-0.19,0.4-0.15,0.65c0.08,0.39,0.69,0.66,1.19,0.6
	c0,0,0.63,0.11,0.94-1.15c0.04-0.16,0.04-0.16,0.03-0.19c-0.17-0.26-0.1-0.16-0.22-0.41C38.63,6.85,38.58,6.71,38.54,6.7z"/>
<path class="st0" d="M39.28,7.57c-0.04,0.14-0.1,0.35-0.22,0.59c-0.16,0.34-0.34,0.44-0.47,0.76c-0.04,0.1-0.61,0.99-0.51,1.19
	c0.1,0.2,0.52,0.85,0.7,0.93s0.85-0.02,1.21-0.08s0.64-0.77,0.64-1.04s-0.38-1.24-0.38-1.24c-0.08-0.2-0.17-0.4-0.26-0.6
	C39.72,7.96,39.42,7.76,39.28,7.57z"/>
<path class="st0" d="M44.77,4.26c0,0,1.59,1.88,1.32,3.31s-1.37,2.76-1.01,3.14s1.55,0.79,1.83,0.33s1.58-3.44,0.97-4.97
	c-0.61-1.54-1.4-2.62-1.58-2.67S44.77,4.26,44.77,4.26z"/>
<g>
	<path class="st1" d="M51.33,17.43v0.11H50.8v1.35h-0.12v-1.35h-0.53v-0.11H51.33z"/>
	<path class="st1" d="M53.01,17.43v1.46h-0.12v-1.26c-0.02,0.05-0.05,0.1-0.08,0.17l-0.44,0.83h-0.12l-0.43-0.83l-0.02-0.05
		c-0.03-0.05-0.04-0.08-0.06-0.11v1.25H51.6v-1.46h0.15l0.44,0.85l0.03,0.07c0.04,0.08,0.07,0.14,0.08,0.17
		c0.01-0.03,0.03-0.07,0.05-0.11s0.04-0.08,0.06-0.12l0.46-0.85H53.01z"/>
</g>
<path class="st2" d="M94.96,38.05c0,0.74,0.45,1.2,1.45,1.2c0.97,0,1.79-0.4,2.56-0.97v-2.15C96.82,36.18,94.96,36.66,94.96,38.05z"
	/>
<path class="st2" d="M100.79,55.47c0,0.74,0.45,1.2,1.45,1.2c0.97,0,1.79-0.4,2.56-0.97v-2.15
	C102.64,53.6,100.79,54.09,100.79,55.47z"/>
<path class="st2" d="M81.64,50.58c-1.58,0-2.29,1.26-2.46,2.45h4.47V52.9C83.66,51.48,83.04,50.58,81.64,50.58z"/>
<path class="st2" d="M120.14,50.63c-1.86,0-2.59,1.27-2.59,3.01c0,1.75,0.75,3.04,2.54,3.04c1.79,0,2.56-1.24,2.56-3.04
	C122.65,51.9,121.91,50.63,120.14,50.63z"/>
<path class="st2" d="M107.92,36.5c0,1.53,0.64,2.74,2.17,2.74c0.92,0,1.68-0.33,2.36-0.69v-5.13c-0.49-0.13-1-0.22-1.56-0.22
	C109.11,33.21,107.92,34.29,107.92,36.5z"/>
<path class="st2" d="M69.26,38.05c0,0.74,0.45,1.2,1.45,1.2c0.97,0,1.79-0.4,2.56-0.97v-2.15C71.12,36.18,69.26,36.66,69.26,38.05z"
	/>
<path class="st2" d="M137.46,33.16c-1.59,0-2.29,1.26-2.46,2.46h4.48v-0.13C139.48,34.06,138.87,33.16,137.46,33.16z"/>
<path class="st2" d="M134.27,55.47c0,0.74,0.45,1.2,1.45,1.2c0.97,0,1.79-0.4,2.55-0.97v-2.15
	C136.12,53.6,134.27,54.09,134.27,55.47z"/>
<polygon class="st1" points="67.51,38.17 62.37,38.17 62.37,29 60.46,29 60.46,39.82 67.51,39.82 "/>
<path class="st1" d="M71.72,33.22c1.1,0,1.56,0.62,1.56,1.72v0.5c-2.62,0.05-4.94,0.77-4.94,2.67c0,1.13,0.87,1.88,2.19,1.88
	c0.95,0,1.9-0.31,2.77-0.99l0.07,0.8h0.79v-4.97c0-1.65-0.85-2.37-2.33-2.37c-1.24,0-2.31,0.45-3.15,1.03l0.4,0.62
	C70.08,33.46,70.92,33.22,71.72,33.22z M73.27,38.28c-0.77,0.57-1.58,0.97-2.56,0.97c-1,0-1.45-0.47-1.45-1.2
	c0-1.38,1.85-1.87,4-1.92V38.28z"/>
<path class="st1" d="M89.64,33.76c0.33-0.65,0.54-1.13,0.68-1.53v7.6h1.87V29h-2.02l-2.47,4.76c-0.46,0.9-0.92,1.87-1.15,2.58
	c-0.24-0.72-0.68-1.67-1.15-2.58L82.94,29h-2.06v10.82h1.83v-7.63c0.15,0.42,0.39,0.9,0.74,1.57l2.25,4.49h1.64L89.64,33.76z"/>
<path class="st1" d="M97.5,32.47c-1.24,0-2.31,0.45-3.15,1.03l0.4,0.62c1.04-0.67,1.87-0.9,2.67-0.9c1.1,0,1.55,0.62,1.55,1.72v0.5
	c-2.62,0.05-4.94,0.77-4.94,2.67c0,1.13,0.87,1.88,2.19,1.88c0.95,0,1.9-0.31,2.77-0.99l0.07,0.8h0.79v-4.97
	C99.84,33.19,98.99,32.47,97.5,32.47z M98.97,38.28c-0.76,0.57-1.58,0.97-2.56,0.97c-1,0-1.45-0.47-1.45-1.2
	c0-1.38,1.86-1.87,4-1.92V38.28z"/>
<path class="st1" d="M103.25,33.72v-1.19l-0.87,0.1v7.18h0.87v-5.02c0.52-1.1,1.25-1.47,1.97-1.47c0.32,0,0.57,0.05,0.85,0.15
	l0.21-0.87c-0.39-0.12-0.64-0.13-0.93-0.13C104.58,32.47,103.81,32.86,103.25,33.72z"/>
<path class="st1" d="M107,36.5c0,1.88,0.89,3.51,2.92,3.51c0.85,0,1.74-0.26,2.52-0.72v3.64h0.86v-9.98
	c-0.89-0.31-1.64-0.47-2.46-0.47C108.67,32.47,107,33.87,107,36.5z M112.45,33.42v5.12c-0.67,0.35-1.43,0.69-2.36,0.69
	c-1.54,0-2.17-1.2-2.17-2.74c0-2.21,1.18-3.29,2.97-3.29C111.45,33.21,111.96,33.29,112.45,33.42z"/>
<path class="st1" d="M120.9,38.43c-0.67,0.4-1.57,0.8-2.44,0.8c-1.33,0-1.72-0.58-1.72-1.78v-4.91l-0.87,0.1v5.08
	c0,1.78,1.18,2.29,2.37,2.29c1.02,0,1.99-0.42,2.69-0.85l0.05,0.67h0.79v-7.28l-0.87,0.1L120.9,38.43L120.9,38.43z"/>
<path class="st1" d="M124.82,29.37c-0.33,0-0.64,0.3-0.64,0.65c0,0.33,0.3,0.64,0.64,0.64c0.35,0,0.65-0.3,0.65-0.64
	C125.47,29.67,125.17,29.37,124.82,29.37z"/>
<polygon class="st1" points="124.41,39.82 125.27,39.82 125.27,32.54 124.41,32.64 "/>
<path class="st1" d="M130.35,35.68l-0.55-0.15c-1.04-0.26-1.52-0.5-1.52-1.19c0-0.75,0.65-1.13,1.65-1.13
	c0.72,0,1.35,0.15,2.26,0.63l0.38-0.65c-1-0.53-1.74-0.72-2.65-0.72c-1.49,0-2.54,0.74-2.54,1.92c0,1.07,0.83,1.56,2.13,1.88
	l0.55,0.15c1.29,0.35,1.85,0.7,1.85,1.52c0,0.83-0.79,1.32-1.92,1.32c-0.8,0-1.67-0.22-2.55-0.87l-0.42,0.65
	c0.87,0.63,1.77,0.95,3.02,0.95c1.76,0,2.77-0.88,2.77-2.12C132.82,36.66,132.05,36.13,130.35,35.68z"/>
<path class="st1" d="M137.46,32.47c-2.35,0-3.35,1.99-3.35,3.78c0,2.69,1.37,3.76,3.24,3.76c1.2,0,2.05-0.44,2.76-0.92l-0.35-0.63
	c-0.63,0.42-1.25,0.8-2.38,0.8c-1.42,0-2.37-0.82-2.38-2.95h5.31c0.04-0.26,0.04-0.65,0.04-0.8
	C140.32,33.82,139.44,32.47,137.46,32.47z M139.48,35.61H135c0.16-1.2,0.87-2.46,2.46-2.46c1.4,0,2.02,0.9,2.02,2.32V35.61z"/>
<rect x="60.46" y="46.43" class="st1" width="1.9" height="10.82"/>
<path class="st1" d="M68.64,49.9c-1.02,0-2.07,0.4-2.79,0.77v-0.7l-0.87,0.1v7.18h0.87v-5.92c0.7-0.32,1.7-0.67,2.57-0.67
	c1.27,0,1.67,0.58,1.67,1.88v4.71h0.87v-5.06C70.97,50.33,69.8,49.9,68.64,49.9z"/>
<path class="st1" d="M75.91,56.68c-0.92,0-1.32-0.62-1.32-1.76v-4.15h2.56l0.1-0.7h-2.65v-1.82l-0.87,0.13v1.69h-1.54v0.7h1.54v4.29
	c0,1.45,0.7,2.37,2.12,2.37c0.65,0,1.2-0.2,1.6-0.4l-0.25-0.65C76.81,56.54,76.39,56.68,75.91,56.68z"/>
<path class="st1" d="M81.64,49.9c-2.36,0-3.36,1.99-3.36,3.78c0,2.69,1.37,3.76,3.24,3.76c1.2,0,2.06-0.44,2.75-0.92l-0.35-0.63
	c-0.64,0.42-1.25,0.8-2.39,0.8c-1.42,0-2.37-0.82-2.39-2.96h5.31c0.04-0.26,0.04-0.65,0.04-0.8C84.49,51.25,83.62,49.9,81.64,49.9z
	 M83.66,53.04h-4.47c0.17-1.2,0.87-2.45,2.46-2.45c1.4,0,2.02,0.9,2.02,2.32V53.04z"/>
<path class="st1" d="M87.37,51.15v-1.19l-0.87,0.1v7.18h0.87v-5.03c0.52-1.1,1.25-1.47,1.97-1.47c0.32,0,0.57,0.05,0.85,0.15
	l0.21-0.87c-0.39-0.12-0.64-0.13-0.93-0.13C88.7,49.9,87.93,50.28,87.37,51.15z"/>
<path class="st1" d="M95.75,49.9c-1.02,0-2.07,0.4-2.79,0.77v-0.7l-0.87,0.1v7.18h0.87v-5.92c0.7-0.32,1.71-0.67,2.57-0.67
	c1.27,0,1.67,0.58,1.67,1.88v4.71h0.87v-5.06C98.07,50.33,96.9,49.9,95.75,49.9z"/>
<path class="st1" d="M103.33,49.9c-1.24,0-2.31,0.45-3.15,1.03l0.4,0.62c1.04-0.67,1.87-0.9,2.67-0.9c1.1,0,1.56,0.62,1.56,1.72v0.5
	c-2.62,0.05-4.94,0.77-4.94,2.67c0,1.13,0.86,1.88,2.18,1.88c0.95,0,1.9-0.31,2.77-0.99l0.07,0.8h0.79v-4.97
	C105.67,50.62,104.81,49.9,103.33,49.9z M104.8,55.71c-0.77,0.57-1.58,0.97-2.56,0.97c-1,0-1.45-0.47-1.45-1.2
	c0-1.38,1.85-1.87,4-1.92V55.71z"/>
<path class="st1" d="M110.59,56.68c-0.92,0-1.32-0.62-1.32-1.76v-4.15h2.56l0.1-0.7h-2.65v-1.82l-0.87,0.13v1.69h-1.54v0.7h1.54
	v4.29c0,1.45,0.7,2.37,2.12,2.37c0.65,0,1.2-0.2,1.61-0.4l-0.25-0.65C111.49,56.54,111.08,56.68,110.59,56.68z"/>
<polygon class="st1" points="113.77,57.24 114.63,57.24 114.63,49.97 113.77,50.07 "/>
<path class="st1" d="M114.18,46.79c-0.33,0-0.64,0.3-0.64,0.65c0,0.33,0.3,0.63,0.64,0.63c0.35,0,0.65-0.3,0.65-0.63
	C114.83,47.09,114.53,46.79,114.18,46.79z"/>
<path class="st1" d="M123.57,53.65c0-2.12-1.1-3.76-3.36-3.76c-1.89,0-3.57,1.03-3.57,3.74c0,2.1,1.12,3.79,3.36,3.79h0
	C121.97,57.43,123.57,56.36,123.57,53.65z M120.1,56.68c-1.79,0-2.54-1.28-2.54-3.04c0-1.74,0.74-3.01,2.59-3.01
	c1.77,0,2.5,1.27,2.5,3.01C122.65,55.44,121.88,56.68,120.1,56.68z"/>
<path class="st1" d="M129.22,49.9c-1.02,0-2.07,0.4-2.79,0.77v-0.7l-0.87,0.1v7.18h0.87v-5.92c0.7-0.32,1.7-0.67,2.57-0.67
	c1.27,0,1.67,0.58,1.67,1.88v4.71h0.87v-5.06C131.55,50.33,130.38,49.9,129.22,49.9z"/>
<path class="st1" d="M136.81,49.9c-1.24,0-2.3,0.45-3.15,1.03l0.4,0.62c1.04-0.67,1.87-0.9,2.67-0.9c1.1,0,1.55,0.62,1.55,1.72v0.5
	c-2.62,0.05-4.94,0.77-4.94,2.67c0,1.13,0.87,1.88,2.19,1.88c0.95,0,1.9-0.31,2.77-0.99l0.07,0.8h0.79v-4.97
	C139.15,50.62,138.29,49.9,136.81,49.9z M138.28,55.71c-0.77,0.57-1.59,0.97-2.55,0.97c-1,0-1.45-0.47-1.45-1.2
	c0-1.38,1.85-1.87,4.01-1.92L138.28,55.71L138.28,55.71z"/>
<polygon class="st1" points="141.68,57.24 142.55,57.24 142.55,45.66 141.68,45.76 "/>
<linearGradient id="SVGID_1_" gradientUnits="userSpaceOnUse" x1="-361.8167" y1="794.5446" x2="-361.3167" y2="794.5446" gradientTransform="matrix(19.8048 -18.4456 18.4456 19.8048 -7454.8882 -22399.0742)">
	<stop  offset="0" style="stop-color:#F3736C"/>
	<stop  offset="0.4379" style="stop-color:#AC615A"/>
	<stop  offset="0.7127" style="stop-color:#7A4C58"/>
	<stop  offset="0.9991" style="stop-color:#663F49"/>
	<stop  offset="1" style="stop-color:#663F49"/>
</linearGradient>
<path class="st3" d="M38,8.25c0.1,0.05,0.44,0.06,0.54-0.21c0.1-0.28,0.13-0.56,0.19-0.89c0,0-0.57,0.2-0.76,0.51
	C37.77,7.94,37.85,8.18,38,8.25z"/>
<linearGradient id="SVGID_2_" gradientUnits="userSpaceOnUse" x1="-361.8167" y1="794.7286" x2="-361.3167" y2="794.7286" gradientTransform="matrix(19.8048 -18.4456 18.4456 19.8048 -7454.8882 -22399.0742)">
	<stop  offset="0" style="stop-color:#F3736C"/>
	<stop  offset="0.4379" style="stop-color:#AC615A"/>
	<stop  offset="0.7127" style="stop-color:#7A4C58"/>
	<stop  offset="0.9991" style="stop-color:#663F49"/>
	<stop  offset="1" style="stop-color:#663F49"/>
</linearGradient>
<path class="st4" d="M46.74,6.43c-0.05,0.03-0.06,0.08-0.06,0.14c0.01,0.04,0.02,0.07,0.04,0.09c0.03,0.02,0.06,0.03,0.11,0.04
	s0.12,0,0.19-0.01c0.11-0.01,0.19-0.04,0.24-0.07c0.04-0.03,0.06-0.09,0.06-0.15c-0.01-0.05-0.03-0.07-0.05-0.1
	c-0.03-0.03-0.06-0.03-0.11-0.04c-0.05-0.01-0.12,0.01-0.19,0.02C46.87,6.36,46.79,6.39,46.74,6.43z"/>
<linearGradient id="SVGID_3_" gradientUnits="userSpaceOnUse" x1="-361.8169" y1="794.613" x2="-361.3169" y2="794.613" gradientTransform="matrix(19.8048 -18.4456 18.4456 19.8048 -7454.8882 -22399.0742)">
	<stop  offset="0" style="stop-color:#F3736C"/>
	<stop  offset="0.4379" style="stop-color:#AC615A"/>
	<stop  offset="0.7127" style="stop-color:#7A4C58"/>
	<stop  offset="0.9991" style="stop-color:#663F49"/>
	<stop  offset="1" style="stop-color:#663F49"/>
</linearGradient>
<path class="st5" d="M35.88,3.51c-1.92,2.81-1.47,6.6,1.01,8.87c0.55,0.51,1.33,0.72,2.04,0.49c0.72-0.22,1.51-0.72,1.96-1.54
	c0.89-1.64-0.05-3.18-0.05-3.18c-0.08,0.02-0.17,0.02-0.25,0.02c-0.19,0.01-0.36-0.02-0.53-0.07c-0.01-0.01-0.01-0.01-0.02-0.01
	C40.02,8.09,40,8.07,39.97,8.07c0.05,0.23,0.06,0.71,0.06,0.75c-0.01,0.11-0.15,0.43-0.17,0.52c-0.04,0.16,0.14,0.92,0.14,0.92
	c-0.05-0.03,0.12,0.31-0.17-0.14c-0.04-0.06-0.33-0.39-0.42-0.56c-0.08-0.14-0.06-0.48,0.08-0.64c0.03-0.03,0.19-0.36,0.17-0.44
	c-0.01-0.08-0.06-0.49-0.08-0.44c-0.03,0.06-0.02,0.39-0.08,0.48c-0.1,0.18-0.22,0.32-0.24,0.36c-0.05,0.1,0.03,0.81-0.01,0.85
	c-0.04,0.04-0.33,0.39-0.36,0.44c-0.03,0.05-0.04,0.55-0.04,0.55c-0.06-0.06-0.51-0.54-0.54-0.62s-0.01-0.41,0.01-0.48
	c0.03-0.06,0.42-0.41,0.42-0.49s0.05-0.52,0.1-0.57c0.06-0.05,0.38-0.46,0.38-0.46c0.03-0.06,0.04-0.32,0.05-0.52
	c0.13,0.16,0.3,0.28,0.48,0.38c-0.18-0.1-0.35-0.22-0.48-0.38c-0.06-0.07-0.12-0.15-0.16-0.23c-0.05-0.08-0.09-0.17-0.12-0.26
	c-0.17-0.1-0.33-0.22-0.46-0.38c-0.05-0.07-0.1-0.13-0.13-0.2c-0.12-0.21-0.19-0.46-0.2-0.73c-0.01-0.14,0.01-0.27,0.04-0.39
	c-0.08-0.14-0.13-0.3-0.13-0.47c-0.01-0.22,0.07-0.43,0.2-0.59c-0.09-0.28-0.09-0.62,0.06-0.95c0.17-0.36,0.52-0.62,0.91-0.69
	c0.29-0.05,0.56-0.01,0.79,0.12c0.22-0.07,0.45-0.11,0.69-0.12c0.6-0.01,1.14,0.21,1.56,0.56c0.6,0.08,1.12,0.48,1.35,1.03
	C44.11,4.52,44.4,5,44.41,5.54c0,0.11-0.01,0.2-0.03,0.3c0.24,0.26,0.4,0.61,0.4,1c0.01,0.11-0.01,0.22-0.03,0.33l0.3,0.47
	l0.12,0.19l0.03,0.06c0.04,0.1,0.03,0.22-0.06,0.31c-0.04,0.05-0.1,0.07-0.16,0.08l-0.01,0.1c0.04,0.03,0.06,0.09,0.06,0.14
	c0,0.06-0.03,0.12-0.08,0.16c0.06,0.03,0.08,0.09,0.09,0.15c0,0.06-0.03,0.11-0.07,0.15c-0.03,0.02-0.05,0.06-0.05,0.11
	c0,0.02,0.01,0.03,0.01,0.05c0.01,0.01,0.01,0.02,0.01,0.02c0.02,0.05,0.03,0.09,0.03,0.14c0.01,0.2-0.16,0.38-0.37,0.38
	c-0.03,0-0.05-0.01-0.08-0.01c-0.03-0.01-0.06-0.02-0.08-0.02c-0.03-0.01-0.06-0.01-0.09-0.01c-0.06-0.01-0.12-0.01-0.18,0
	c-0.01,0.01-0.03,0.01-0.05,0.01c-0.05,0.01-0.1,0.01-0.14,0.02c-0.01,0.01-0.03,0.01-0.03,0.01c-0.12,0.04-0.21,0.15-0.21,0.29
	c0.01,0.6,0.22,1.15,0.56,1.59c0.24,0.31,0.54,0.56,0.88,0.73c0.42,0.22,0.92,0.1,1.24-0.23c0.54-0.57,1.01-1.26,1.35-2.04
	c1.26-2.94,0.31-6.32-2.28-8.19c-1.17-0.85-2.54-1.26-3.91-1.26h-0.06C39.35,0.58,37.18,1.61,35.88,3.51z M46.18,11.03
	c-0.28-0.26-0.43-0.39-0.72-0.64c0.19-0.22,0.28-0.33,0.44-0.57c0.06,0.03,0.08,0.06,0.15,0.09c-0.11,0.17-0.17,0.25-0.29,0.41
	c0.06,0.06,0.1,0.08,0.17,0.14c0.12-0.15,0.17-0.22,0.27-0.37c0.05,0.05,0.08,0.07,0.12,0.12c-0.1,0.15-0.15,0.22-0.26,0.36
	c0.08,0.06,0.11,0.09,0.18,0.15c0.15-0.19,0.22-0.28,0.34-0.48c0.06,0.03,0.08,0.06,0.15,0.09C46.52,10.63,46.42,10.77,46.18,11.03z
	 M46.99,9.89c-0.04,0.07-0.08,0.14-0.13,0.19c-0.04,0.05-0.1,0.09-0.15,0.12c-0.02-0.06-0.03-0.1-0.06-0.16
	c0.04-0.02,0.08-0.06,0.12-0.1c0.03-0.03,0.06-0.07,0.08-0.11s0.03-0.07,0.03-0.09s-0.01-0.03-0.03-0.05
	c-0.01-0.01-0.02-0.01-0.03,0s-0.03,0.02-0.04,0.03c-0.02,0.02-0.04,0.05-0.07,0.08c-0.01,0.02-0.02,0.02-0.03,0.04
	c-0.06,0.07-0.12,0.11-0.17,0.13c-0.04,0.02-0.1,0.01-0.14-0.02c-0.03-0.02-0.06-0.05-0.08-0.09s-0.01-0.09-0.01-0.14
	s0.03-0.1,0.06-0.16c0.06-0.1,0.12-0.19,0.2-0.26c0.03,0.06,0.05,0.08,0.08,0.14c-0.04,0.03-0.07,0.07-0.09,0.1
	c-0.02,0.02-0.04,0.06-0.06,0.09c-0.01,0.02-0.02,0.05-0.02,0.06c0,0.02,0.01,0.03,0.02,0.03c0.01,0.01,0.02,0.01,0.03,0.01
	c0.01-0.01,0.02-0.01,0.03-0.02c0.01-0.01,0.03-0.03,0.06-0.06c0.01-0.02,0.03-0.03,0.04-0.05c0.06-0.07,0.12-0.13,0.17-0.15
	s0.1-0.03,0.15-0.01c0.04,0.02,0.07,0.05,0.09,0.09s0.03,0.09,0.02,0.15C47.05,9.75,47.03,9.82,46.99,9.89z M47.16,9.29
	c-0.04,0.02-0.08,0.01-0.12-0.01c-0.12-0.05-0.18-0.07-0.3-0.11c-0.02,0.06-0.03,0.08-0.06,0.14c-0.06-0.02-0.09-0.03-0.15-0.06
	c0.02-0.05,0.03-0.07,0.05-0.13c-0.06-0.02-0.08-0.03-0.14-0.06c0.02-0.09,0.03-0.13,0.05-0.22c0.07,0.02,0.1,0.03,0.17,0.06
	c0.03-0.08,0.04-0.12,0.06-0.2c0.06,0.02,0.09,0.04,0.15,0.06c-0.02,0.07-0.03,0.11-0.06,0.19c0.11,0.03,0.17,0.06,0.28,0.09
	c0.03,0.01,0.05,0.01,0.06,0S47.18,9,47.19,8.98c0.01-0.02,0.01-0.03,0.01-0.05s0-0.04,0-0.06c0.06-0.01,0.09-0.02,0.15-0.03
	c0.01,0.08,0.01,0.17-0.03,0.26c-0.01,0.05-0.03,0.09-0.06,0.12C47.23,9.25,47.2,9.27,47.16,9.29z M47.22,8.63
	c-0.01-0.02-0.01-0.05,0-0.07s0.01-0.05,0.03-0.07c0.01-0.02,0.03-0.03,0.06-0.05s0.04-0.02,0.06-0.01s0.04,0.02,0.06,0.03
	c0.01,0.02,0.03,0.04,0.03,0.06c0.01,0.02,0.01,0.06,0,0.08c-0.01,0.03-0.01,0.05-0.03,0.07c-0.01,0.02-0.03,0.03-0.06,0.05
	s-0.04,0.01-0.06,0.01s-0.03-0.02-0.05-0.03C47.24,8.68,47.23,8.66,47.22,8.63z M47.54,7.91C47.5,7.9,47.48,7.9,47.44,7.9
	c-0.1-0.16-0.19-0.28-0.26-0.36c-0.07-0.07-0.12-0.13-0.17-0.16c-0.04-0.03-0.08-0.04-0.12-0.04c-0.04,0-0.07,0.01-0.09,0.04
	s-0.03,0.06-0.03,0.11c0,0.03,0.01,0.07,0.02,0.11c0.01,0.03,0.03,0.07,0.06,0.12c-0.06,0.05-0.08,0.07-0.13,0.11
	c-0.04-0.05-0.07-0.11-0.09-0.18c-0.02-0.06-0.03-0.12-0.03-0.19s0.01-0.12,0.03-0.18s0.04-0.09,0.08-0.12
	c0.04-0.03,0.09-0.05,0.15-0.05c0.05-0.01,0.1,0.01,0.15,0.03c0.05,0.02,0.1,0.06,0.17,0.11c0.06,0.06,0.14,0.14,0.23,0.26
	c0.01-0.18,0-0.26-0.01-0.43c0.06-0.01,0.1-0.01,0.17-0.01C47.58,7.4,47.58,7.57,47.54,7.91z M47.5,6.43
	c0.01,0.09,0.01,0.18-0.01,0.25c-0.03,0.07-0.08,0.13-0.15,0.18s-0.16,0.07-0.28,0.08c-0.13,0.01-0.23,0-0.31-0.03
	c-0.08-0.03-0.13-0.07-0.17-0.13c-0.03-0.05-0.06-0.11-0.08-0.18c-0.02-0.11-0.01-0.22,0.06-0.3c0.06-0.09,0.17-0.16,0.35-0.2
	c0.18-0.05,0.31-0.04,0.41,0.03C47.42,6.19,47.48,6.3,47.5,6.43z M47.21,5.41c0.03,0.09,0.04,0.18,0.03,0.25s-0.05,0.14-0.11,0.2
	c-0.06,0.05-0.15,0.1-0.26,0.13c-0.12,0.03-0.22,0.05-0.31,0.03c-0.08-0.02-0.15-0.05-0.19-0.1c-0.04-0.05-0.08-0.1-0.1-0.17
	c-0.04-0.11-0.04-0.21-0.01-0.31c0.04-0.09,0.14-0.18,0.3-0.26c0.17-0.09,0.31-0.1,0.41-0.05C47.08,5.19,47.16,5.29,47.21,5.41z
	 M45.89,4.54c0.04-0.03,0.08-0.05,0.13-0.06c0.05-0.01,0.12-0.01,0.21,0.01c0.09,0.01,0.21,0.05,0.34,0.1
	c-0.1-0.16-0.15-0.23-0.26-0.38c0.06-0.04,0.08-0.06,0.13-0.1c0.22,0.28,0.31,0.43,0.47,0.74L46.84,4.9
	c-0.18-0.09-0.33-0.14-0.42-0.16c-0.1-0.03-0.18-0.04-0.23-0.04c-0.06,0-0.1,0.01-0.12,0.03c-0.03,0.02-0.05,0.05-0.06,0.09
	s0.01,0.07,0.03,0.11c0.02,0.03,0.04,0.06,0.08,0.09c0.03,0.03,0.07,0.05,0.12,0.07c-0.02,0.07-0.03,0.11-0.05,0.17
	c-0.06-0.03-0.12-0.06-0.17-0.11s-0.1-0.09-0.13-0.15c-0.04-0.06-0.06-0.11-0.08-0.17c-0.01-0.05-0.01-0.11,0-0.16
	C45.82,4.62,45.85,4.57,45.89,4.54z M37.42,7.52c0.36-0.51,0.85-0.73,1.12-0.82c0.12,0.16,0.28,0.28,0.45,0.38
	c0.03,0.09,0.08,0.18,0.12,0.26c-0.03,0.64-0.13,0.83-0.13,0.83c-0.47,0.99-1.38,0.45-1.38,0.45C37.07,8.17,37.42,7.52,37.42,7.52z"
	/>
<linearGradient id="SVGID_4_" gradientUnits="userSpaceOnUse" x1="-361.8167" y1="794.6972" x2="-361.3167" y2="794.6972" gradientTransform="matrix(19.8048 -18.4456 18.4456 19.8048 -7454.8882 -22399.0742)">
	<stop  offset="0" style="stop-color:#F3736C"/>
	<stop  offset="0.4379" style="stop-color:#AC615A"/>
	<stop  offset="0.7127" style="stop-color:#7A4C58"/>
	<stop  offset="0.9991" style="stop-color:#663F49"/>
	<stop  offset="1" style="stop-color:#663F49"/>
</linearGradient>
<path class="st6" d="M46.47,5.56c-0.04,0.05-0.05,0.09-0.03,0.14c0.01,0.03,0.03,0.06,0.06,0.08c0.03,0.01,0.07,0.02,0.12,0.01
	c0.05-0.01,0.11-0.02,0.19-0.05c0.1-0.03,0.17-0.07,0.22-0.12s0.05-0.09,0.03-0.16c-0.01-0.04-0.04-0.07-0.07-0.09
	s-0.07-0.03-0.12-0.02s-0.11,0.03-0.19,0.05C46.58,5.47,46.51,5.51,46.47,5.56z"/>
<radialGradient id="SVGID_5_" cx="-351.4283" cy="771.0746" r="0.5" gradientTransform="matrix(103.5789 -79.3263 79.3263 103.5789 -24764.9844 -107687.6484)" gradientUnits="userSpaceOnUse">
	<stop  offset="0" style="stop-color:#F3736C"/>
	<stop  offset="0.1008" style="stop-color:#DB6A66"/>
	<stop  offset="0.2994" style="stop-color:#B15B5C"/>
	<stop  offset="0.4931" style="stop-color:#904F54"/>
	<stop  offset="0.6782" style="stop-color:#79464E"/>
	<stop  offset="0.851" style="stop-color:#6B414A"/>
	<stop  offset="0.9991" style="stop-color:#663F49"/>
	<stop  offset="1" style="stop-color:#663F49"/>
</radialGradient>
<polygon class="st7" points="15.27,57.28 15.27,50.03 10.05,50.03 10.05,17.03 1.42,17.03 1.42,57.28 "/>
<radialGradient id="SVGID_6_" cx="-351.4283" cy="771.0746" r="0.5" gradientTransform="matrix(103.5789 -79.3263 79.3263 103.5789 -24764.9844 -107687.6484)" gradientUnits="userSpaceOnUse">
	<stop  offset="0" style="stop-color:#F3736C"/>
	<stop  offset="0.1008" style="stop-color:#DB6A66"/>
	<stop  offset="0.2994" style="stop-color:#B15B5C"/>
	<stop  offset="0.4931" style="stop-color:#904F54"/>
	<stop  offset="0.6782" style="stop-color:#79464E"/>
	<stop  offset="0.851" style="stop-color:#6B414A"/>
	<stop  offset="0.9991" style="stop-color:#663F49"/>
	<stop  offset="1" style="stop-color:#663F49"/>
</radialGradient>
<polygon class="st8" points="34.27,57.28 34.27,50.04 29.05,50.04 29.05,17.03 15.24,17.03 15.24,24.28 20.42,24.28 20.42,57.28 "/>
<radialGradient id="SVGID_7_" cx="-351.4283" cy="771.0746" r="0.5" gradientTransform="matrix(103.5789 -79.3263 79.3263 103.5789 -24764.9844 -107687.6484)" gradientUnits="userSpaceOnUse">
	<stop  offset="0" style="stop-color:#F3736C"/>
	<stop  offset="0.1008" style="stop-color:#DB6A66"/>
	<stop  offset="0.2994" style="stop-color:#B15B5C"/>
	<stop  offset="0.4931" style="stop-color:#904F54"/>
	<stop  offset="0.6782" style="stop-color:#79464E"/>
	<stop  offset="0.851" style="stop-color:#6B414A"/>
	<stop  offset="0.9991" style="stop-color:#663F49"/>
	<stop  offset="1" style="stop-color:#663F49"/>
</radialGradient>
<polygon class="st9" points="53.23,50.04 48.01,50.04 48.01,17.03 34.2,17.03 34.2,24.28 39.38,24.28 39.38,57.28 53.23,57.28 
	53.23,57.28 "/>
<path class="st0" d="M39.98,8.06L39.98,8.06c-0.08-0.03-0.15-0.07-0.22-0.11C39.83,7.99,39.9,8.04,39.98,8.06L39.98,8.06z"/>
</svg>
